<svg width="28" height="28" viewBox="0 0 28 28" fill="none" xmlns="http://www.w3.org/2000/svg">
<rect width="28" height="28" fill="white" fill-opacity="0.01"/>
<path d="M11.0076 20.345C10.3445 21.0081 9.74424 21.5546 9.19276 22.0229L9.41218 22.2423C9.61573 22.4459 9.92726 22.4949 10.1834 22.3631C10.5265 22.1863 11.0661 21.9324 12.2115 21.2945L11.1203 20.2032C11.0771 20.2503 11.0545 20.2983 11.0076 20.345Z" fill="#3D76E3"/>
<path d="M10.6556 16.952C10.1769 16.4733 8.83073 16.9025 8.19835 17.5347C6.08281 19.6502 5.12734 21.1501 4.69833 22.0357C4.57534 22.2895 4.62657 22.5932 4.82598 22.7926C5.02574 22.9926 5.33003 23.0433 5.58395 22.9203C6.44972 22.4999 7.93132 21.5489 10.072 19.4084C10.7674 18.7127 11.11 17.4065 10.6556 16.952Z" fill="#3D76E3"/>
<path d="M4.06754 11.8188L2.19403 13.6923C1.9822 13.9041 1.93873 14.2321 2.0888 14.4918C2.23525 14.7482 2.54196 14.8788 2.83383 14.8006C3.8464 14.5291 4.73736 14.4144 5.33731 14.5683C6.19084 13.0508 7.10802 11.6539 8.07936 10.385C7.51753 10.0248 5.66092 10.2254 4.06754 11.8188Z" fill="#3D76E3"/>
<path d="M13.2111 25.5389C13.4662 25.6679 13.7751 25.6181 13.9771 25.4159L15.8508 23.5424C17.3014 22.0915 17.5567 20.2195 17.2276 19.626C15.8124 20.6925 14.3787 21.5931 13.0412 22.3471C13.1335 22.8683 13.072 23.3739 12.8538 24.8505C12.8112 25.1363 12.9589 25.4128 13.2111 25.5389Z" fill="#3D76E3"/>
<path d="M15.1509 9.64449C14.3762 10.4194 14.3762 11.6798 15.1509 12.4547C15.9257 13.2295 17.1863 13.2295 17.9612 12.4547C18.7361 11.6798 18.7361 10.4194 17.9612 9.64449C17.1863 8.86962 15.9257 8.86962 15.1509 9.64449Z" fill="#3D76E3"/>
<path d="M19.8344 7.77139C18.7321 6.66912 18.059 5.34709 17.8431 4.0599C13.8654 5.69122 10.0577 9.25368 7.04874 14.2582L8.54362 15.7531C9.56499 15.3384 10.8049 15.2289 11.5913 16.0151C12.3788 16.8028 12.2672 18.0422 11.8527 19.0622L13.3967 20.6062C17.2473 18.2856 21.7302 14.6295 23.6365 9.76514C22.3179 9.5659 20.9546 8.8916 19.8344 7.77139ZM18.8974 13.3919C17.6062 14.6831 15.505 14.6831 14.2137 13.3919C12.9223 12.1006 12.9223 9.99922 14.2137 8.70807C15.505 7.41691 17.6062 7.41691 18.8974 8.70807C20.1887 9.9994 20.1887 12.1006 18.8974 13.3919Z" fill="#3D76E3"/>
<path d="M5.02981 17.6649C4.90181 17.9202 4.95166 18.2288 5.15332 18.4306L5.31529 18.5926C5.78328 18.038 6.32873 17.4361 6.99026 16.7748C7.03701 16.728 7.08514 16.7054 7.13206 16.6623L6.08999 15.6201C5.48417 16.7158 5.13089 17.4644 5.02981 17.6649Z" fill="#3D76E3"/>
<path d="M24.5712 3.64613C24.5473 3.31855 24.2865 3.05963 23.96 3.03513C22.3331 2.91266 20.7127 3.11276 19.1243 3.59852C19.2438 4.68975 19.8083 5.87068 20.7718 6.83426C21.747 7.80923 22.96 8.37347 24.0707 8.47904C24.4985 6.97985 24.7014 5.37422 24.5712 3.64613Z" fill="#3D76E3"/>
</svg>
