<svg id="Layer_1" data-name="Layer 1" xmlns="http://www.w3.org/2000/svg" viewBox="0 0 28 28"><defs><style>.cls-1{opacity:0.01;}.cls-2{fill:#fff;}.cls-3{fill:#3d76e3;}</style></defs><g class="cls-1"><rect class="cls-2" width="28" height="28"/></g><path class="cls-3" d="M6.86,18c0,.08,0,.15,0,.22a4.15,4.15,0,0,1-1.41.12h0a3.6,3.6,0,0,1-3.19-4,8.22,8.22,0,0,1,1-3.07,15.16,15.16,0,0,0,1-3.56c.45-2,2.44-3,4.43-3.06a7.57,7.57,0,0,0-.87.83,9,9,0,0,0-2.12,7,21.15,21.15,0,0,0,.57,3c.13.51.26,1.08.42,1.8C6.77,17.55,6.82,17.77,6.86,18Zm18.87-3.62a8.22,8.22,0,0,0-1-3.07,15.16,15.16,0,0,1-1-3.56c-.45-2-2.45-3-4.43-3.06a7.57,7.57,0,0,1,.87.83,9,9,0,0,1,2.12,7,21.15,21.15,0,0,1-.57,3c-.13.5-.26,1.07-.42,1.8-.05.21-.1.43-.14.65s0,.15,0,.22a4.15,4.15,0,0,0,1.41.12h0A3.6,3.6,0,0,0,25.73,14.37Zm-8.85-3.11A1.07,1.07,0,1,0,18,12.33,1.07,1.07,0,0,0,16.88,11.26Zm4.42,1.15a20.52,20.52,0,0,1-.61,3.2c-.12.46-.24.94-.36,1.52l-.12.54c-.3,1.47-.62,3-2.19,4a4.34,4.34,0,0,1-1,.5l-.41.48A3.22,3.22,0,0,1,14,24.14a3.08,3.08,0,0,1-2.52-1.4L11,22.2a4.23,4.23,0,0,1-1-.5c-1.57-1-1.89-2.56-2.19-4l-.12-.54c-.12-.58-.24-1.06-.36-1.52a20.52,20.52,0,0,1-.61-3.2A8,8,0,0,1,8.58,6.15,7.13,7.13,0,0,1,14,3.86h.09a7.12,7.12,0,0,1,5.37,2.29A8,8,0,0,1,21.3,12.41Zm-11.25-.08a1.07,1.07,0,1,0,1.07-1.07A1.07,1.07,0,0,0,10.05,12.33Zm5.12,10A2.63,2.63,0,0,1,14,21.83a2.51,2.51,0,0,1-1.18.52,1.5,1.5,0,0,0,1.18.53A1.53,1.53,0,0,0,15.17,22.35ZM18.48,7A5.8,5.8,0,0,0,14,5.12H14a6.15,6.15,0,0,0-2.81.64A5.26,5.26,0,0,1,9,15.84l-.35,0c.08.32.16.66.24,1,0,.18.08.37.12.55.29,1.39.52,2.49,1.66,3.24a2.24,2.24,0,0,0,2.65.1l0,0,.23-.19,0,0c-.62-.36-1.78-1.12-1.78-1.91s.44-1.27,2.16-1.27,2.16.53,2.16,1.27S15,20.14,14.38,20.5l0,0,.23.19,0,0a2.24,2.24,0,0,0,2.65-.1c1.14-.75,1.37-1.85,1.66-3.24,0-.18.07-.37.12-.55.13-.6.26-1.11.37-1.56a18.86,18.86,0,0,0,.58-3A6.79,6.79,0,0,0,18.48,7Z"/></svg>